<svg xmlns="http://www.w3.org/2000/svg" viewBox="0 0 360 360">
<g transform="translate(0,62.0)"><path d="M1.0,234.5 L358.0,117.25 L1.25,1.0 Z" fill="#102C5E"/>
<path d="M31.25,37.75 L31.5,196.5 L249.0,129.5 L222.0,117.75 L248.75,105.5 Z" fill="#ffffff"/>
<path d="M130.75,90.0 L130.5,141.5 L144.0,142.0 L144.5,125.0 L157.75,123.25 L164.25,119.75 L166.5,117.5 L169.25,111.75 L169.25,101.0 L167.0,96.25 L160.0,91.25 L153.75,90.0 Z M57.5,90.25 L57.5,141.75 L70.25,141.75 L70.25,104.5 L82.0,141.75 L95.0,141.75 L106.75,104.25 L107.0,141.5 L120.0,141.75 L119.75,90.0 L100.25,90.0 L89.25,125.5 L77.75,90.25 Z" fill="#BE1528" fill-rule="evenodd"/></g>
</svg>
